<svg xmlns="http://www.w3.org/2000/svg" width="1180" height="430" viewBox="0 0 1180 430">
<rect width="100%" height="100%" rx="18" fill="#151310"/>
<text x="28" y="38" fill="#E9E1D4" font-size="24" font-family="ui-monospace, SFMono-Regular, Menlo, monospace">Safelight Dark</text>
<text x="28" y="62" fill="#B9AC98" font-size="13" font-family="ui-monospace, SFMono-Regular, Menlo, monospace">Redshift 1200 K with reset ramps, brightness 1, gamma 1 · commanded sRGB</text>
<rect x="28" y="88" width="142" height="52" rx="6" fill="#0D0404" stroke="#665D50"/>
<text x="36" y="109" fill="#FFF0D8" font-size="11" font-family="ui-monospace, SFMono-Regular, Menlo, monospace">bg</text>
<text x="36" y="129" fill="#FFF0D8" font-size="12" font-family="ui-monospace, SFMono-Regular, Menlo, monospace">#0D0404</text>
<rect x="186" y="88" width="142" height="52" rx="6" fill="#180706" stroke="#665D50"/>
<text x="194" y="109" fill="#FFF0D8" font-size="11" font-family="ui-monospace, SFMono-Regular, Menlo, monospace">bg_alt</text>
<text x="194" y="129" fill="#FFF0D8" font-size="12" font-family="ui-monospace, SFMono-Regular, Menlo, monospace">#180706</text>
<rect x="344" y="88" width="142" height="52" rx="6" fill="#260B08" stroke="#665D50"/>
<text x="352" y="109" fill="#FFF0D8" font-size="11" font-family="ui-monospace, SFMono-Regular, Menlo, monospace">bg_high</text>
<text x="352" y="129" fill="#FFF0D8" font-size="12" font-family="ui-monospace, SFMono-Regular, Menlo, monospace">#260B08</text>
<rect x="502" y="88" width="142" height="52" rx="6" fill="#FFE9C8" stroke="#665D50"/>
<text x="510" y="109" fill="#14110E" font-size="11" font-family="ui-monospace, SFMono-Regular, Menlo, monospace">fg</text>
<text x="510" y="129" fill="#14110E" font-size="12" font-family="ui-monospace, SFMono-Regular, Menlo, monospace">#FFE9C8</text>
<rect x="660" y="88" width="142" height="52" rx="6" fill="#DDBA94" stroke="#665D50"/>
<text x="668" y="109" fill="#14110E" font-size="11" font-family="ui-monospace, SFMono-Regular, Menlo, monospace">fg_soft</text>
<text x="668" y="129" fill="#14110E" font-size="12" font-family="ui-monospace, SFMono-Regular, Menlo, monospace">#DDBA94</text>
<rect x="818" y="88" width="142" height="52" rx="6" fill="#AE8669" stroke="#665D50"/>
<text x="826" y="109" fill="#14110E" font-size="11" font-family="ui-monospace, SFMono-Regular, Menlo, monospace">fg_muted</text>
<text x="826" y="129" fill="#14110E" font-size="12" font-family="ui-monospace, SFMono-Regular, Menlo, monospace">#AE8669</text>
<rect x="976" y="88" width="142" height="52" rx="6" fill="#4B1D13" stroke="#665D50"/>
<text x="984" y="109" fill="#FFF0D8" font-size="11" font-family="ui-monospace, SFMono-Regular, Menlo, monospace">selection</text>
<text x="984" y="129" fill="#FFF0D8" font-size="12" font-family="ui-monospace, SFMono-Regular, Menlo, monospace">#4B1D13</text>
<text x="28" y="174" fill="#B9AC98" font-size="13" font-family="ui-monospace, SFMono-Regular, Menlo, monospace">ANSI 0–15</text>
<rect x="28" y="187" width="68" height="44" fill="#260B08"/>
<rect x="96" y="187" width="68" height="44" fill="#ED0000"/>
<rect x="164" y="187" width="68" height="44" fill="#92FF00"/>
<rect x="232" y="187" width="68" height="44" fill="#B637FF"/>
<rect x="300" y="187" width="68" height="44" fill="#BFF6FF"/>
<rect x="368" y="187" width="68" height="44" fill="#D10092"/>
<rect x="436" y="187" width="68" height="44" fill="#BFA449"/>
<rect x="504" y="187" width="68" height="44" fill="#DDBA94"/>
<rect x="572" y="187" width="68" height="44" fill="#AE8669"/>
<rect x="640" y="187" width="68" height="44" fill="#F75545"/>
<rect x="708" y="187" width="68" height="44" fill="#A8FF61"/>
<rect x="776" y="187" width="68" height="44" fill="#C368FF"/>
<rect x="844" y="187" width="68" height="44" fill="#CBF8FF"/>
<rect x="912" y="187" width="68" height="44" fill="#DF50A5"/>
<rect x="980" y="187" width="68" height="44" fill="#CAB46E"/>
<rect x="1048" y="187" width="68" height="44" fill="#FFE9C8"/>
<text x="28" y="264" fill="#B9AC98" font-size="13" font-family="ui-monospace, SFMono-Regular, Menlo, monospace">Categorical 1–8</text>
<rect x="28" y="278" width="132" height="58" rx="5" fill="#ED0000"/>
<text x="49" y="314" fill="#14110E" font-size="13" font-family="ui-monospace, SFMono-Regular, Menlo, monospace">#ED0000</text>
<rect x="168" y="278" width="132" height="58" rx="5" fill="#92FF00"/>
<text x="189" y="314" fill="#14110E" font-size="13" font-family="ui-monospace, SFMono-Regular, Menlo, monospace">#92FF00</text>
<rect x="308" y="278" width="132" height="58" rx="5" fill="#B637FF"/>
<text x="329" y="314" fill="#14110E" font-size="13" font-family="ui-monospace, SFMono-Regular, Menlo, monospace">#B637FF</text>
<rect x="448" y="278" width="132" height="58" rx="5" fill="#BFF6FF"/>
<text x="469" y="314" fill="#14110E" font-size="13" font-family="ui-monospace, SFMono-Regular, Menlo, monospace">#BFF6FF</text>
<rect x="588" y="278" width="132" height="58" rx="5" fill="#D10092"/>
<text x="609" y="314" fill="#FFF0D8" font-size="13" font-family="ui-monospace, SFMono-Regular, Menlo, monospace">#D10092</text>
<rect x="728" y="278" width="132" height="58" rx="5" fill="#BFA449"/>
<text x="749" y="314" fill="#14110E" font-size="13" font-family="ui-monospace, SFMono-Regular, Menlo, monospace">#BFA449</text>
<rect x="868" y="278" width="132" height="58" rx="5" fill="#A4B6FF"/>
<text x="889" y="314" fill="#14110E" font-size="13" font-family="ui-monospace, SFMono-Regular, Menlo, monospace">#A4B6FF</text>
<rect x="1008" y="278" width="132" height="58" rx="5" fill="#DBD109"/>
<text x="1029" y="314" fill="#14110E" font-size="13" font-family="ui-monospace, SFMono-Regular, Menlo, monospace">#DBD109</text>
<text x="28" y="370" fill="#B9AC98" font-size="13" font-family="ui-monospace, SFMono-Regular, Menlo, monospace">Sequential (low → high)</text>
<rect x="28.00" y="384" width="4.5" height="24" fill="#090203"/>
<rect x="32.32" y="384" width="4.5" height="24" fill="#0A0204"/>
<rect x="36.64" y="384" width="4.5" height="24" fill="#0A0204"/>
<rect x="40.96" y="384" width="4.5" height="24" fill="#0B0205"/>
<rect x="45.28" y="384" width="4.5" height="24" fill="#0C0306"/>
<rect x="49.60" y="384" width="4.5" height="24" fill="#0C0307"/>
<rect x="53.92" y="384" width="4.5" height="24" fill="#0D0308"/>
<rect x="58.24" y="384" width="4.5" height="24" fill="#0E0309"/>
<rect x="62.56" y="384" width="4.5" height="24" fill="#0F030A"/>
<rect x="66.88" y="384" width="4.5" height="24" fill="#0F040B"/>
<rect x="71.20" y="384" width="4.5" height="24" fill="#10040C"/>
<rect x="75.52" y="384" width="4.5" height="24" fill="#11040D"/>
<rect x="79.84" y="384" width="4.5" height="24" fill="#12040F"/>
<rect x="84.16" y="384" width="4.5" height="24" fill="#120410"/>
<rect x="88.48" y="384" width="4.5" height="24" fill="#130511"/>
<rect x="92.80" y="384" width="4.5" height="24" fill="#140512"/>
<rect x="97.12" y="384" width="4.5" height="24" fill="#150514"/>
<rect x="101.44" y="384" width="4.5" height="24" fill="#150515"/>
<rect x="105.76" y="384" width="4.5" height="24" fill="#160616"/>
<rect x="110.08" y="384" width="4.5" height="24" fill="#170617"/>
<rect x="114.40" y="384" width="4.5" height="24" fill="#180619"/>
<rect x="118.72" y="384" width="4.5" height="24" fill="#19061A"/>
<rect x="123.04" y="384" width="4.5" height="24" fill="#19061B"/>
<rect x="127.36" y="384" width="4.5" height="24" fill="#1A071C"/>
<rect x="131.68" y="384" width="4.5" height="24" fill="#1B071E"/>
<rect x="136.00" y="384" width="4.5" height="24" fill="#1C071F"/>
<rect x="140.32" y="384" width="4.5" height="24" fill="#1C0820"/>
<rect x="144.64" y="384" width="4.5" height="24" fill="#1D0822"/>
<rect x="148.96" y="384" width="4.5" height="24" fill="#1E0823"/>
<rect x="153.28" y="384" width="4.5" height="24" fill="#1F0824"/>
<rect x="157.60" y="384" width="4.5" height="24" fill="#200926"/>
<rect x="161.92" y="384" width="4.5" height="24" fill="#210927"/>
<rect x="166.24" y="384" width="4.5" height="24" fill="#210928"/>
<rect x="170.56" y="384" width="4.5" height="24" fill="#220929"/>
<rect x="174.88" y="384" width="4.5" height="24" fill="#230A2B"/>
<rect x="179.20" y="384" width="4.5" height="24" fill="#240A2C"/>
<rect x="183.52" y="384" width="4.5" height="24" fill="#250A2D"/>
<rect x="187.84" y="384" width="4.5" height="24" fill="#260B2E"/>
<rect x="192.16" y="384" width="4.5" height="24" fill="#260B2F"/>
<rect x="196.48" y="384" width="4.5" height="24" fill="#270B31"/>
<rect x="200.80" y="384" width="4.5" height="24" fill="#280C32"/>
<rect x="205.12" y="384" width="4.5" height="24" fill="#290C33"/>
<rect x="209.44" y="384" width="4.5" height="24" fill="#2A0C34"/>
<rect x="213.76" y="384" width="4.5" height="24" fill="#2B0D35"/>
<rect x="218.08" y="384" width="4.5" height="24" fill="#2B0D36"/>
<rect x="222.40" y="384" width="4.5" height="24" fill="#2C0D37"/>
<rect x="226.72" y="384" width="4.5" height="24" fill="#2D0E38"/>
<rect x="231.04" y="384" width="4.5" height="24" fill="#2E0E39"/>
<rect x="235.36" y="384" width="4.5" height="24" fill="#2F0E3A"/>
<rect x="239.68" y="384" width="4.5" height="24" fill="#300F3B"/>
<rect x="244.00" y="384" width="4.5" height="24" fill="#310F3C"/>
<rect x="248.32" y="384" width="4.5" height="24" fill="#320F3D"/>
<rect x="252.64" y="384" width="4.5" height="24" fill="#32103E"/>
<rect x="256.96" y="384" width="4.5" height="24" fill="#33103F"/>
<rect x="261.28" y="384" width="4.5" height="24" fill="#341140"/>
<rect x="265.60" y="384" width="4.5" height="24" fill="#351141"/>
<rect x="269.92" y="384" width="4.5" height="24" fill="#361142"/>
<rect x="274.24" y="384" width="4.5" height="24" fill="#371242"/>
<rect x="278.56" y="384" width="4.5" height="24" fill="#381243"/>
<rect x="282.88" y="384" width="4.5" height="24" fill="#391344"/>
<rect x="287.20" y="384" width="4.5" height="24" fill="#3A1345"/>
<rect x="291.52" y="384" width="4.5" height="24" fill="#3A1345"/>
<rect x="295.84" y="384" width="4.5" height="24" fill="#3B1446"/>
<rect x="300.16" y="384" width="4.5" height="24" fill="#3C1447"/>
<rect x="304.48" y="384" width="4.5" height="24" fill="#3D1548"/>
<rect x="308.80" y="384" width="4.5" height="24" fill="#3E1548"/>
<rect x="313.12" y="384" width="4.5" height="24" fill="#3F1649"/>
<rect x="317.44" y="384" width="4.5" height="24" fill="#40164A"/>
<rect x="321.76" y="384" width="4.5" height="24" fill="#41164A"/>
<rect x="326.08" y="384" width="4.5" height="24" fill="#42174B"/>
<rect x="330.40" y="384" width="4.5" height="24" fill="#43174C"/>
<rect x="334.72" y="384" width="4.5" height="24" fill="#44184C"/>
<rect x="339.04" y="384" width="4.5" height="24" fill="#44184D"/>
<rect x="343.36" y="384" width="4.5" height="24" fill="#45194D"/>
<rect x="347.68" y="384" width="4.5" height="24" fill="#46194E"/>
<rect x="352.00" y="384" width="4.5" height="24" fill="#471A4E"/>
<rect x="356.32" y="384" width="4.5" height="24" fill="#481A4F"/>
<rect x="360.64" y="384" width="4.5" height="24" fill="#491A4F"/>
<rect x="364.96" y="384" width="4.5" height="24" fill="#4A1B50"/>
<rect x="369.28" y="384" width="4.5" height="24" fill="#4B1B50"/>
<rect x="373.60" y="384" width="4.5" height="24" fill="#4C1C51"/>
<rect x="377.92" y="384" width="4.5" height="24" fill="#4D1C51"/>
<rect x="382.24" y="384" width="4.5" height="24" fill="#4E1D51"/>
<rect x="386.56" y="384" width="4.5" height="24" fill="#4F1D52"/>
<rect x="390.88" y="384" width="4.5" height="24" fill="#501E52"/>
<rect x="395.20" y="384" width="4.5" height="24" fill="#511E53"/>
<rect x="399.52" y="384" width="4.5" height="24" fill="#521F53"/>
<rect x="403.84" y="384" width="4.5" height="24" fill="#531F53"/>
<rect x="408.16" y="384" width="4.5" height="24" fill="#542054"/>
<rect x="412.48" y="384" width="4.5" height="24" fill="#542054"/>
<rect x="416.80" y="384" width="4.5" height="24" fill="#552054"/>
<rect x="421.12" y="384" width="4.5" height="24" fill="#562154"/>
<rect x="425.44" y="384" width="4.5" height="24" fill="#572154"/>
<rect x="429.76" y="384" width="4.5" height="24" fill="#582255"/>
<rect x="434.08" y="384" width="4.5" height="24" fill="#592255"/>
<rect x="438.40" y="384" width="4.5" height="24" fill="#5A2355"/>
<rect x="442.72" y="384" width="4.5" height="24" fill="#5B2355"/>
<rect x="447.04" y="384" width="4.5" height="24" fill="#5C2455"/>
<rect x="451.36" y="384" width="4.5" height="24" fill="#5D2456"/>
<rect x="455.68" y="384" width="4.5" height="24" fill="#5E2556"/>
<rect x="460.00" y="384" width="4.5" height="24" fill="#5F2556"/>
<rect x="464.32" y="384" width="4.5" height="24" fill="#602656"/>
<rect x="468.64" y="384" width="4.5" height="24" fill="#612656"/>
<rect x="472.96" y="384" width="4.5" height="24" fill="#622757"/>
<rect x="477.28" y="384" width="4.5" height="24" fill="#632757"/>
<rect x="481.60" y="384" width="4.5" height="24" fill="#642757"/>
<rect x="485.92" y="384" width="4.5" height="24" fill="#652857"/>
<rect x="490.24" y="384" width="4.5" height="24" fill="#662857"/>
<rect x="494.56" y="384" width="4.5" height="24" fill="#672957"/>
<rect x="498.88" y="384" width="4.5" height="24" fill="#682A57"/>
<rect x="503.20" y="384" width="4.5" height="24" fill="#692A58"/>
<rect x="507.52" y="384" width="4.5" height="24" fill="#6A2B58"/>
<rect x="511.84" y="384" width="4.5" height="24" fill="#6B2B58"/>
<rect x="516.16" y="384" width="4.5" height="24" fill="#6C2C58"/>
<rect x="520.48" y="384" width="4.5" height="24" fill="#6D2C58"/>
<rect x="524.80" y="384" width="4.5" height="24" fill="#6E2D58"/>
<rect x="529.12" y="384" width="4.5" height="24" fill="#6F2D58"/>
<rect x="533.44" y="384" width="4.5" height="24" fill="#702E58"/>
<rect x="537.76" y="384" width="4.5" height="24" fill="#712E58"/>
<rect x="542.08" y="384" width="4.5" height="24" fill="#722F58"/>
<rect x="546.40" y="384" width="4.5" height="24" fill="#732F59"/>
<rect x="550.72" y="384" width="4.5" height="24" fill="#743059"/>
<rect x="555.04" y="384" width="4.5" height="24" fill="#753159"/>
<rect x="559.36" y="384" width="4.5" height="24" fill="#763159"/>
<rect x="563.68" y="384" width="4.5" height="24" fill="#773259"/>
<rect x="568.00" y="384" width="4.5" height="24" fill="#783259"/>
<rect x="572.32" y="384" width="4.5" height="24" fill="#793359"/>
<rect x="576.64" y="384" width="4.5" height="24" fill="#7A3359"/>
<rect x="580.96" y="384" width="4.5" height="24" fill="#7B3459"/>
<rect x="585.28" y="384" width="4.5" height="24" fill="#7C3559"/>
<rect x="589.60" y="384" width="4.5" height="24" fill="#7D3559"/>
<rect x="593.92" y="384" width="4.5" height="24" fill="#7E3659"/>
<rect x="598.24" y="384" width="4.5" height="24" fill="#7F3759"/>
<rect x="602.56" y="384" width="4.5" height="24" fill="#803759"/>
<rect x="606.88" y="384" width="4.5" height="24" fill="#813859"/>
<rect x="611.20" y="384" width="4.5" height="24" fill="#823859"/>
<rect x="615.52" y="384" width="4.5" height="24" fill="#833959"/>
<rect x="619.84" y="384" width="4.5" height="24" fill="#843A59"/>
<rect x="624.16" y="384" width="4.5" height="24" fill="#853A59"/>
<rect x="628.48" y="384" width="4.5" height="24" fill="#863B59"/>
<rect x="632.80" y="384" width="4.5" height="24" fill="#883C59"/>
<rect x="637.12" y="384" width="4.5" height="24" fill="#893C59"/>
<rect x="641.44" y="384" width="4.5" height="24" fill="#8A3D59"/>
<rect x="645.76" y="384" width="4.5" height="24" fill="#8B3E58"/>
<rect x="650.08" y="384" width="4.5" height="24" fill="#8C3E58"/>
<rect x="654.40" y="384" width="4.5" height="24" fill="#8D3F58"/>
<rect x="658.72" y="384" width="4.5" height="24" fill="#8E4058"/>
<rect x="663.04" y="384" width="4.5" height="24" fill="#8F4158"/>
<rect x="667.36" y="384" width="4.5" height="24" fill="#904158"/>
<rect x="671.68" y="384" width="4.5" height="24" fill="#914258"/>
<rect x="676.00" y="384" width="4.5" height="24" fill="#924358"/>
<rect x="680.32" y="384" width="4.5" height="24" fill="#934357"/>
<rect x="684.64" y="384" width="4.5" height="24" fill="#944457"/>
<rect x="688.96" y="384" width="4.5" height="24" fill="#954557"/>
<rect x="693.28" y="384" width="4.5" height="24" fill="#964657"/>
<rect x="697.60" y="384" width="4.5" height="24" fill="#974657"/>
<rect x="701.92" y="384" width="4.5" height="24" fill="#984756"/>
<rect x="706.24" y="384" width="4.5" height="24" fill="#994856"/>
<rect x="710.56" y="384" width="4.5" height="24" fill="#9A4956"/>
<rect x="714.88" y="384" width="4.5" height="24" fill="#9B4A56"/>
<rect x="719.20" y="384" width="4.5" height="24" fill="#9C4A55"/>
<rect x="723.52" y="384" width="4.5" height="24" fill="#9D4B55"/>
<rect x="727.84" y="384" width="4.5" height="24" fill="#9F4C55"/>
<rect x="732.16" y="384" width="4.5" height="24" fill="#A04D55"/>
<rect x="736.48" y="384" width="4.5" height="24" fill="#A14E54"/>
<rect x="740.80" y="384" width="4.5" height="24" fill="#A24E54"/>
<rect x="745.12" y="384" width="4.5" height="24" fill="#A34F54"/>
<rect x="749.44" y="384" width="4.5" height="24" fill="#A45054"/>
<rect x="753.76" y="384" width="4.5" height="24" fill="#A55153"/>
<rect x="758.08" y="384" width="4.5" height="24" fill="#A65253"/>
<rect x="762.40" y="384" width="4.5" height="24" fill="#A75353"/>
<rect x="766.72" y="384" width="4.5" height="24" fill="#A85453"/>
<rect x="771.04" y="384" width="4.5" height="24" fill="#A95553"/>
<rect x="775.36" y="384" width="4.5" height="24" fill="#AA5552"/>
<rect x="779.68" y="384" width="4.5" height="24" fill="#AB5652"/>
<rect x="784.00" y="384" width="4.5" height="24" fill="#AC5752"/>
<rect x="788.32" y="384" width="4.5" height="24" fill="#AD5852"/>
<rect x="792.64" y="384" width="4.5" height="24" fill="#AE5952"/>
<rect x="796.96" y="384" width="4.5" height="24" fill="#B05A52"/>
<rect x="801.28" y="384" width="4.5" height="24" fill="#B15B51"/>
<rect x="805.60" y="384" width="4.5" height="24" fill="#B25C51"/>
<rect x="809.92" y="384" width="4.5" height="24" fill="#B35D51"/>
<rect x="814.24" y="384" width="4.5" height="24" fill="#B45E51"/>
<rect x="818.56" y="384" width="4.5" height="24" fill="#B55F51"/>
<rect x="822.88" y="384" width="4.5" height="24" fill="#B66050"/>
<rect x="827.20" y="384" width="4.5" height="24" fill="#B76150"/>
<rect x="831.52" y="384" width="4.5" height="24" fill="#B86250"/>
<rect x="835.84" y="384" width="4.5" height="24" fill="#B96350"/>
<rect x="840.16" y="384" width="4.5" height="24" fill="#BA6450"/>
<rect x="844.48" y="384" width="4.5" height="24" fill="#BB6550"/>
<rect x="848.80" y="384" width="4.5" height="24" fill="#BC6650"/>
<rect x="853.12" y="384" width="4.5" height="24" fill="#BD674F"/>
<rect x="857.44" y="384" width="4.5" height="24" fill="#BF684F"/>
<rect x="861.76" y="384" width="4.5" height="24" fill="#C0694F"/>
<rect x="866.08" y="384" width="4.5" height="24" fill="#C16B4F"/>
<rect x="870.40" y="384" width="4.5" height="24" fill="#C26C4F"/>
<rect x="874.72" y="384" width="4.5" height="24" fill="#C36D4F"/>
<rect x="879.04" y="384" width="4.5" height="24" fill="#C46E4F"/>
<rect x="883.36" y="384" width="4.5" height="24" fill="#C56F4F"/>
<rect x="887.68" y="384" width="4.5" height="24" fill="#C6704F"/>
<rect x="892.00" y="384" width="4.5" height="24" fill="#C7724F"/>
<rect x="896.32" y="384" width="4.5" height="24" fill="#C8734F"/>
<rect x="900.64" y="384" width="4.5" height="24" fill="#C9744E"/>
<rect x="904.96" y="384" width="4.5" height="24" fill="#CA754E"/>
<rect x="909.28" y="384" width="4.5" height="24" fill="#CC764E"/>
<rect x="913.60" y="384" width="4.5" height="24" fill="#CD784E"/>
<rect x="917.92" y="384" width="4.5" height="24" fill="#CE794E"/>
<rect x="922.24" y="384" width="4.5" height="24" fill="#CF7A4E"/>
<rect x="926.56" y="384" width="4.5" height="24" fill="#D07B4E"/>
<rect x="930.88" y="384" width="4.5" height="24" fill="#D17D4E"/>
<rect x="935.20" y="384" width="4.5" height="24" fill="#D27E4E"/>
<rect x="939.52" y="384" width="4.5" height="24" fill="#D37F4E"/>
<rect x="943.84" y="384" width="4.5" height="24" fill="#D4814F"/>
<rect x="948.16" y="384" width="4.5" height="24" fill="#D5824F"/>
<rect x="952.48" y="384" width="4.5" height="24" fill="#D6834F"/>
<rect x="956.80" y="384" width="4.5" height="24" fill="#D7854F"/>
<rect x="961.12" y="384" width="4.5" height="24" fill="#D9864F"/>
<rect x="965.44" y="384" width="4.5" height="24" fill="#DA884F"/>
<rect x="969.76" y="384" width="4.5" height="24" fill="#DB894F"/>
<rect x="974.08" y="384" width="4.5" height="24" fill="#DC8A50"/>
<rect x="978.40" y="384" width="4.5" height="24" fill="#DD8C50"/>
<rect x="982.72" y="384" width="4.5" height="24" fill="#DE8D50"/>
<rect x="987.04" y="384" width="4.5" height="24" fill="#DF8F51"/>
<rect x="991.36" y="384" width="4.5" height="24" fill="#E09151"/>
<rect x="995.68" y="384" width="4.5" height="24" fill="#E19252"/>
<rect x="1000.00" y="384" width="4.5" height="24" fill="#E29452"/>
<rect x="1004.32" y="384" width="4.5" height="24" fill="#E39553"/>
<rect x="1008.64" y="384" width="4.5" height="24" fill="#E49754"/>
<rect x="1012.96" y="384" width="4.5" height="24" fill="#E59954"/>
<rect x="1017.28" y="384" width="4.5" height="24" fill="#E79A55"/>
<rect x="1021.60" y="384" width="4.5" height="24" fill="#E89C56"/>
<rect x="1025.92" y="384" width="4.5" height="24" fill="#E99E57"/>
<rect x="1030.24" y="384" width="4.5" height="24" fill="#EAA058"/>
<rect x="1034.56" y="384" width="4.5" height="24" fill="#EBA25A"/>
<rect x="1038.88" y="384" width="4.5" height="24" fill="#ECA35B"/>
<rect x="1043.20" y="384" width="4.5" height="24" fill="#EDA55C"/>
<rect x="1047.52" y="384" width="4.5" height="24" fill="#EEA75E"/>
<rect x="1051.84" y="384" width="4.5" height="24" fill="#EFAA5F"/>
<rect x="1056.16" y="384" width="4.5" height="24" fill="#F0AC61"/>
<rect x="1060.48" y="384" width="4.5" height="24" fill="#F1AE63"/>
<rect x="1064.80" y="384" width="4.5" height="24" fill="#F2B065"/>
<rect x="1069.12" y="384" width="4.5" height="24" fill="#F3B368"/>
<rect x="1073.44" y="384" width="4.5" height="24" fill="#F4B56A"/>
<rect x="1077.76" y="384" width="4.5" height="24" fill="#F5B86D"/>
<rect x="1082.08" y="384" width="4.5" height="24" fill="#F6BB70"/>
<rect x="1086.40" y="384" width="4.5" height="24" fill="#F7BD74"/>
<rect x="1090.72" y="384" width="4.5" height="24" fill="#F8C178"/>
<rect x="1095.04" y="384" width="4.5" height="24" fill="#F9C47C"/>
<rect x="1099.36" y="384" width="4.5" height="24" fill="#F9C781"/>
<rect x="1103.68" y="384" width="4.5" height="24" fill="#FACB85"/>
<rect x="1108.00" y="384" width="4.5" height="24" fill="#FBCE89"/>
<rect x="1112.32" y="384" width="4.5" height="24" fill="#FCD28E"/>
<rect x="1116.64" y="384" width="4.5" height="24" fill="#FDD592"/>
<rect x="1120.96" y="384" width="4.5" height="24" fill="#FDD997"/>
<rect x="1125.28" y="384" width="4.5" height="24" fill="#FEDC9B"/>
<rect x="1129.60" y="384" width="4.5" height="24" fill="#FFE0A0"/>
</svg>