<svg xmlns="http://www.w3.org/2000/svg" width="760" height="830" viewBox="0 0 760 830">
<rect width="760" height="830" rx="22" fill="#050404"/>
<g font-family="system-ui, sans-serif">
<text x="36" y="54" fill="#DCD9BF" font-size="32" font-weight="700">When hue compresses, color alone is fragile</text>
<text x="36" y="90" fill="#9B9784" font-size="21">The same transformed colors are used in both charts.</text>

<g transform="translate(36 126)">
  <text x="0" y="0" fill="#2B8B7F" font-size="27" font-weight="700">Wrong: identity lives only in hue</text>
  <rect x="0" y="24" width="688" height="270" rx="14" fill="#1E1918" stroke="#322926" stroke-width="2"/>
  <path d="M34 210 C120 70 215 250 330 115 S540 180 625 62" fill="none" stroke="#F22D00" stroke-width="7"/>
  <path d="M34 238 C130 115 235 230 345 165 S535 72 625 145" fill="none" stroke="#C94F00" stroke-width="7"/>
  <path d="M34 112 C130 220 245 62 355 142 S535 245 625 205" fill="none" stroke="#DD3F00" stroke-width="7"/>
  <text x="24" y="328" fill="#7D7564" font-size="20">At crossings and small sizes, A/B/C become guesswork.</text>
</g>

<g transform="translate(36 492)">
  <text x="0" y="0" fill="#71CFA5" font-size="27" font-weight="700">Ember: color + pattern + marker + label</text>
  <rect x="0" y="24" width="688" height="270" rx="14" fill="#1E1918" stroke="#322926" stroke-width="2"/>
  <path d="M34 210 C120 70 215 250 330 115 S540 180 625 62" fill="none" stroke="#F22D00" stroke-width="7"/>
  <circle cx="625" cy="62" r="10" fill="#F22D00"/><text x="644" y="70" fill="#F57A59" font-size="24" font-weight="700">A</text>
  <path d="M34 238 C130 115 235 230 345 165 S535 72 625 145" fill="none" stroke="#C94F00" stroke-width="7" stroke-dasharray="20 13"/>
  <rect x="615" y="135" width="20" height="20" fill="#C94F00"/><text x="644" y="154" fill="#D88942" font-size="24" font-weight="700">B</text>
  <path d="M34 112 C130 220 245 62 355 142 S535 245 625 205" fill="none" stroke="#DD3F00" stroke-width="7" stroke-dasharray="4 12"/>
  <path d="M625 193 L613 215 L637 215 Z" fill="#DD3F00"/><text x="644" y="214" fill="#EA865B" font-size="24" font-weight="700">C</text>
</g>
</g></svg>